<?xml version="1.0" encoding="utf-8"?>
<!-- Generator: Adobe Illustrator 21.0.0, SVG Export Plug-In . SVG Version: 6.00 Build 0)  -->
<svg version="1.1" id="Layer_1" xmlns="http://www.w3.org/2000/svg" xmlns:xlink="http://www.w3.org/1999/xlink" x="0px" y="0px"
	 viewBox="0 0 156 32" style="enable-background:new 0 0 156 32;" xml:space="preserve">
<title>logo pruh</title>
<desc>Created with Sketch.</desc>
<g>
	<path d="M7.5,18H5v4.8H2.5V10h5c2.6,0,4.2,1.8,4.2,4S10.1,18,7.5,18z M7.3,12.2H5v3.5h2.3c1.1,0,1.9-0.7,1.9-1.7S8.5,12.2,7.3,12.2
		z"/>
	<path d="M13.8,22.8V10h2.5v10.6h5.8v2.2H13.8z"/>
	<path d="M31.4,22.8l-0.8-2.3h-4.6l-0.8,2.3h-2.6L27.4,10h2l4.7,12.8H31.4z M28.5,13.8l-1.6,4.7H30L28.5,13.8z"/>
	<path d="M39.7,22.9c-1.4,0-2.5-0.5-3.5-1.4c-0.6-0.6-0.9-1.2-1-1.9c-0.1-0.7-0.2-1.8-0.2-3.2c0-1.4,0.1-2.5,0.2-3.2
		c0.1-0.7,0.5-1.4,1-1.9c0.9-0.9,2.1-1.4,3.5-1.4c2.5,0,4.3,1.4,4.7,4.1h-2.5c-0.3-1.1-1-1.8-2.2-1.8c-0.7,0-1.2,0.2-1.6,0.7
		c-0.5,0.6-0.6,1.1-0.6,3.6c0,2.5,0.1,3.1,0.6,3.6c0.4,0.5,0.9,0.7,1.6,0.7c1.2,0,1.9-0.7,2.2-1.8h2.5C44,21.5,42.2,22.9,39.7,22.9z
		"/>
	<path d="M46.6,22.8V10h8.4v2.2h-5.9v3h5.1v2.2h-5.1v3.1h5.9v2.2H46.6z"/>
	<path d="M61.7,22.8V10h2.5v10.6H70v2.2H61.7z"/>
	<path d="M79.3,21.5c-0.9,0.9-2,1.4-3.5,1.4s-2.6-0.5-3.5-1.4c-1.3-1.3-1.3-2.9-1.3-5.1c0-2.2,0-3.8,1.3-5.1c0.9-0.9,2-1.4,3.5-1.4
		s2.6,0.5,3.5,1.4c1.3,1.3,1.3,2.9,1.3,5.1C80.6,18.6,80.6,20.2,79.3,21.5z M77.5,12.8c-0.4-0.4-0.9-0.7-1.6-0.7
		c-0.7,0-1.3,0.3-1.6,0.7c-0.5,0.5-0.6,1.1-0.6,3.6c0,2.5,0.1,3.1,0.6,3.6c0.4,0.4,0.9,0.7,1.6,0.7c0.7,0,1.2-0.3,1.6-0.7
		c0.5-0.5,0.6-1.1,0.6-3.6C78.1,13.9,78,13.3,77.5,12.8z"/>
	<path d="M91.1,21.5c-1,1-2.2,1.5-3.6,1.5c-1.4,0-2.5-0.5-3.5-1.4c-0.6-0.6-0.9-1.2-1-1.9c-0.1-0.7-0.2-1.8-0.2-3.2
		c0-1.4,0.1-2.5,0.2-3.2c0.1-0.7,0.5-1.4,1-1.9c0.9-0.9,2.1-1.4,3.5-1.4c2.9,0,4.5,1.9,4.8,4.1h-2.5c-0.3-1.2-1.1-1.9-2.3-1.9
		c-0.7,0-1.2,0.2-1.6,0.7c-0.5,0.6-0.6,1.1-0.6,3.6c0,2.5,0.1,3,0.6,3.6c0.4,0.5,0.9,0.7,1.6,0.7c0.7,0,1.3-0.2,1.8-0.7
		c0.4-0.4,0.6-1,0.6-1.7v-0.5h-2.4v-2.1h4.8v1.9C92.3,19.4,91.9,20.5,91.1,21.5z"/>
	<path d="M102.4,21.5c-0.9,0.9-2,1.4-3.5,1.4c-1.5,0-2.6-0.5-3.5-1.4c-1.3-1.3-1.3-2.9-1.3-5.1c0-2.2,0-3.8,1.3-5.1
		c0.9-0.9,2-1.4,3.5-1.4c1.5,0,2.6,0.5,3.5,1.4c1.3,1.3,1.3,2.9,1.3,5.1C103.7,18.6,103.7,20.2,102.4,21.5z M100.5,12.8
		c-0.4-0.4-0.9-0.7-1.6-0.7c-0.7,0-1.3,0.3-1.6,0.7c-0.5,0.5-0.6,1.1-0.6,3.6c0,2.5,0.1,3.1,0.6,3.6c0.4,0.4,0.9,0.7,1.6,0.7
		c0.7,0,1.2-0.3,1.6-0.7c0.5-0.5,0.6-1.1,0.6-3.6C101.2,13.9,101,13.3,100.5,12.8z"/>
	<path d="M117.2,22.8v-5.4h-4.3v5.4h-2.5V10h2.5v5.2h4.3V10h2.5v12.8H117.2z"/>
	<path d="M122.7,22.8V10h8.4v2.2h-5.9v3h5.1v2.2h-5.1v3.1h5.9v2.2H122.7z"/>
	<path d="M140.4,22.8l-2.5-5.1h-1.8v5.1h-2.5V10h5c2.6,0,4.2,1.8,4.2,3.9c0,1.8-1.1,2.9-2.3,3.4l2.9,5.5H140.4z M138.5,12.2h-2.4
		v3.4h2.4c1.1,0,1.8-0.7,1.8-1.7S139.6,12.2,138.5,12.2z"/>
	<path d="M145.4,22.8V10h8.4v2.2h-5.9v3h5.1v2.2h-5.1v3.1h5.9v2.2H145.4z"/>
</g>
</svg>
