<?xml version="1.0" encoding="UTF-8"?>
<svg width="156px" height="32px" viewBox="0 0 156 32" version="1.1" xmlns="http://www.w3.org/2000/svg" xmlns:xlink="http://www.w3.org/1999/xlink">
    <!-- Generator: Sketch 41.2 (35397) - http://www.bohemiancoding.com/sketch -->
    <title>logo pruh</title>
    <desc>Created with Sketch.</desc>
    <defs></defs>
    <g id="Symbols" stroke="none" stroke-width="1" fill="none" fill-rule="evenodd">
        <g id="Encyklopedie-/-Header-/-Left" transform="translate(-170.000000, -24.000000)">
            <g id="logo-pruh" transform="translate(160.000000, 20.000000)">
                <g id="Layer_1">
                    <rect id="Rectangle-path" x="55.53375" y="7.01107011" width="111.17075" height="26.4354244"></rect>
                    <g id="Group" opacity="0.95" transform="translate(55.755000, 7.084871)" fill="#3C3C3B">
                        <path d="M0.118,10.8191882 C1.18,10.7749077 1.3865,10.4797048 1.3865,9.8597786 L1.3865,1.59409594 C1.3865,1.00369004 1.18,0.693726937 0.118,0.649446494 L0.118,0.339483395 L8.06825,0.339483395 L8.15675,3.92619926 L7.7585,3.95571956 C6.903,1.71217712 6.41625,0.73800738 4.7495,0.73800738 L3.55475,0.73800738 L3.55475,5.40221402 L3.96775,5.40221402 C4.9265,5.40221402 5.41325,5.03321033 5.85575,3.39483395 L6.18025,3.39483395 L6.18025,7.86715867 L5.85575,7.86715867 C5.41325,6.19926199 4.9265,5.81549815 3.96775,5.81549815 L3.55475,5.81549815 L3.55475,10.7453875 L4.661,10.7453875 C6.65225,10.7453875 7.27175,9.68265683 8.083,7.27675277 L8.48125,7.30627306 L8.39275,11.1586716 L0.10325,11.1586716 L0.10325,10.8191882 L0.118,10.8191882 Z" id="Shape"></path>
                        <path d="M11.4755,2.53874539 L11.43125,2.53874539 L11.43125,8.33948339 C11.43125,9.93357934 11.66725,10.5830258 12.98,10.804428 L12.98,11.1143911 L9.44,11.1143911 L9.44,10.804428 C10.679,10.5682657 10.915,9.91881919 10.915,8.33948339 L10.915,2.42066421 C10.915,1.26937269 10.54625,0.708487085 9.44,0.649446494 L9.44,0.339483395 L12.61125,0.339483395 L17.464,7.80811808 L17.50825,7.80811808 L17.50825,3.099631 C17.50825,1.5202952 17.1985,0.856088561 15.85625,0.634686347 L15.85625,0.339483395 L19.411,0.339483395 L19.411,0.634686347 C18.18675,0.885608856 18.00975,1.53505535 18.00975,3.099631 L18.00975,11.2177122 L17.11,11.2177122 L11.4755,2.53874539 Z" id="Shape"></path>
                        <path d="M20.04525,5.77121771 C20.04525,2.36162362 22.22825,0.073800738 24.85375,0.073800738 C25.76825,0.073800738 26.55,0.383763838 27.09575,0.752767528 L27.65625,0.0147601476 L27.98075,0.0147601476 L27.98075,4 L27.59725,4 C26.74175,1.77121771 25.94525,0.487084871 24.76525,0.487084871 C23.46725,0.487084871 22.42,1.96309963 22.42,5.62361624 C22.42,9.41697417 23.79175,10.6568266 25.11925,10.6568266 C26.38775,10.6568266 27.317,9.65313653 27.95125,7.91143911 L28.36425,8.08856089 C27.71525,10.0221402 26.609,11.3800738 24.52925,11.3800738 C21.84475,11.3653137 20.04525,9.34317343 20.04525,5.77121771 Z" id="Shape"></path>
                        <path d="M35.6655,2.71586716 C36.344,1.26937269 36.21125,0.856088561 35.0755,0.619926199 L35.0755,0.324723247 L38.2615,0.324723247 L38.2615,0.619926199 C37.36175,0.811808118 36.97825,1.2398524 36.27025,2.67158672 L34.50025,6.34686347 L34.50025,9.8597786 C34.50025,10.4797048 34.70675,10.7749077 35.7835,10.8191882 L35.7835,11.1291513 L31.034,11.1291513 L31.034,10.8191882 C32.14025,10.7749077 32.332,10.4797048 32.332,9.8597786 L32.332,6.55350554 L30.031,1.74169742 C29.6475,0.959409594 29.441,0.79704797 28.5855,0.619926199 L28.5855,0.324723247 L33.3645,0.324723247 L33.3645,0.619926199 C32.16975,0.723247232 32.096,1.04797048 32.40575,1.72693727 L34.1905,5.78597786 L35.6655,2.71586716 Z" id="Shape"></path>
                        <path d="M44.53025,2.7601476 C45.50375,1.38745387 45.5185,0.811808118 44.3385,0.619926199 L44.3385,0.324723247 L47.9375,0.324723247 L47.9375,0.619926199 C46.91975,0.841328413 46.32975,1.25461255 45.194,2.58302583 L43.955,4.16236162 L46.6985,9.22509225 C47.33275,10.4354244 47.554,10.6715867 48.4095,10.8191882 L48.4095,11.1291513 L43.955,11.1291513 L43.955,10.8191882 C44.8105,10.7453875 44.899,10.5092251 44.4565,9.68265683 L42.49475,6.03690037 L41.772,6.90774908 L41.772,9.96309963 C41.772,10.597786 41.99325,10.7749077 42.78975,10.8339483 L42.78975,11.1439114 L38.30575,11.1439114 L38.30575,10.8339483 C39.36775,10.7896679 39.57425,10.4944649 39.57425,9.87453875 L39.57425,1.60885609 C39.57425,0.988929889 39.36775,0.708487085 38.30575,0.664206642 L38.30575,0.354243542 L42.96675,0.354243542 L42.96675,0.649446494 C42.008,0.708487085 41.75725,0.974169742 41.75725,1.60885609 L41.75725,6.25830258 L44.53025,2.7601476 Z" id="Shape"></path>
                        <path d="M48.54225,10.8191882 C49.60425,10.7749077 49.81075,10.4797048 49.81075,9.8597786 L49.81075,1.59409594 C49.81075,1.00369004 49.60425,0.693726937 48.54225,0.649446494 L48.54225,0.339483395 L53.277,0.339483395 L53.277,0.649446494 C52.17075,0.693726937 52.0085,0.974169742 52.0085,1.59409594 L52.0085,10.7306273 L52.5985,10.7306273 C54.53075,10.7306273 55.047,9.87453875 56.12375,7.17343173 L56.522,7.18819188 L56.38925,11.1291513 L48.54225,11.1291513 L48.54225,10.8191882 Z" id="Shape"></path>
                        <path d="M57.36275,5.75645756 C57.36275,2.42066421 59.25075,0.073800738 61.9205,0.073800738 C64.6345,0.073800738 66.493,2.37638376 66.493,5.69741697 C66.493,9.04797048 64.605,11.3653137 61.9205,11.3653137 C59.19175,11.3653137 57.36275,9.09225092 57.36275,5.75645756 Z M64.08875,5.74169742 C64.08875,1.97785978 63.425,0.487084871 61.891,0.487084871 C60.31275,0.487084871 59.767,1.97785978 59.767,5.72693727 C59.767,9.49077491 60.416,10.9815498 61.96475,10.9815498 C63.5135,10.9667897 64.08875,9.47601476 64.08875,5.74169742 Z" id="Shape"></path>
                        <path d="M67.3485,10.8191882 C68.4105,10.7749077 68.617,10.4797048 68.617,9.8597786 L68.617,1.59409594 C68.617,1.00369004 68.4105,0.693726937 67.3485,0.649446494 L67.3485,0.339483395 L71.64075,0.339483395 C74.59075,0.339483395 75.638,1.63837638 75.638,3.30627306 C75.638,4.88560886 74.53175,6.56826568 71.626,6.56826568 L70.81475,6.56826568 L70.81475,9.87453875 C70.81475,10.5092251 70.977,10.7896679 72.157,10.8339483 L72.157,11.1439114 L67.36325,11.1439114 L67.36325,10.8191882 L67.3485,10.8191882 Z M71.4195,6.15498155 C72.99775,6.15498155 73.38125,5.09225092 73.38125,3.36531365 C73.38125,1.77121771 72.9535,0.708487085 71.449,0.708487085 L70.8,0.708487085 L70.8,6.15498155 L71.4195,6.15498155 L71.4195,6.15498155 Z" id="Shape"></path>
                        <path d="M76.287,10.8191882 C77.349,10.7749077 77.5555,10.4797048 77.5555,9.8597786 L77.5555,1.59409594 C77.5555,1.00369004 77.349,0.693726937 76.287,0.649446494 L76.287,0.339483395 L84.23725,0.339483395 L84.32575,3.92619926 L83.9275,3.95571956 C83.072,1.71217712 82.58525,0.73800738 80.9185,0.73800738 L79.72375,0.73800738 L79.72375,5.40221402 L80.13675,5.40221402 C81.0955,5.40221402 81.58225,5.03321033 82.02475,3.39483395 L82.34925,3.39483395 L82.34925,7.86715867 L82.02475,7.86715867 C81.58225,6.19926199 81.0955,5.81549815 80.13675,5.81549815 L79.72375,5.81549815 L79.72375,10.7453875 L80.83,10.7453875 C82.82125,10.7453875 83.44075,9.68265683 84.252,7.27675277 L84.65025,7.30627306 L84.56175,11.1586716 L76.27225,11.1586716 L76.27225,10.8191882 L76.287,10.8191882 Z" id="Shape"></path>
                        <path d="M85.68275,10.8191882 C86.74475,10.7749077 86.95125,10.4797048 86.95125,9.8597786 L86.95125,1.59409594 C86.95125,1.00369004 86.74475,0.693726937 85.68275,0.649446494 L85.68275,0.339483395 L89.9455,0.339483395 C93.41175,0.339483395 95.09325,2.49446494 95.09325,5.59409594 C95.09325,8.51660517 93.67725,11.1439114 90.13725,11.1439114 L85.668,11.1439114 L85.668,10.8191882 L85.68275,10.8191882 Z M89.78325,10.7158672 C91.93675,10.7158672 92.7185,9.60885609 92.7185,5.66789668 C92.7185,1.69741697 91.686,0.708487085 89.69475,0.708487085 L89.13425,0.708487085 L89.13425,10.7158672 L89.78325,10.7158672 Z" id="Shape"></path>
                        <path d="M96.06675,10.8191882 C97.173,10.7749077 97.36475,10.4797048 97.36475,9.8597786 L97.36475,1.59409594 C97.36475,1.00369004 97.15825,0.693726937 96.06675,0.649446494 L96.06675,0.339483395 L100.84575,0.339483395 L100.84575,0.649446494 C99.7395,0.693726937 99.54775,0.988929889 99.54775,1.59409594 L99.54775,9.8597786 C99.54775,10.4797048 99.75425,10.7749077 100.84575,10.8191882 L100.84575,11.1291513 L96.06675,11.1291513 L96.06675,10.8191882 Z" id="Shape"></path>
                        <path d="M101.64225,10.8191882 C102.70425,10.7749077 102.91075,10.4797048 102.91075,9.8597786 L102.91075,1.59409594 C102.91075,1.00369004 102.70425,0.693726937 101.64225,0.649446494 L101.64225,0.339483395 L109.5925,0.339483395 L109.681,3.92619926 L109.28275,3.95571956 C108.42725,1.71217712 107.9405,0.73800738 106.27375,0.73800738 L105.079,0.73800738 L105.079,5.40221402 L105.492,5.40221402 C106.45075,5.40221402 106.9375,5.03321033 107.38,3.39483395 L107.7045,3.39483395 L107.7045,7.86715867 L107.38,7.86715867 C106.9375,6.19926199 106.45075,5.81549815 105.492,5.81549815 L105.079,5.81549815 L105.079,10.7453875 L106.18525,10.7453875 C108.1765,10.7453875 108.796,9.68265683 109.60725,7.27675277 L110.0055,7.30627306 L109.917,11.1586716 L101.6275,11.1586716 L101.6275,10.8191882 L101.64225,10.8191882 Z" id="Shape"></path>
                    </g>
                    <g id="Group" opacity="0.95" transform="translate(55.755000, 21.992620)" fill="#3C3C3B">
                        <path d="M0.04425,10.8487085 C1.298,10.6125461 1.534,9.96309963 1.534,8.38376384 L1.534,2.36162362 C1.534,1.26937269 1.16525,0.723247232 0.04425,0.664206642 L0.04425,0.354243542 L4.071,0.354243542 L6.44575,7.94095941 L6.53425,7.94095941 L8.77625,0.354243542 L12.4785,0.354243542 L12.4785,0.664206642 C11.4165,0.708487085 11.21,1.00369004 11.21,1.60885609 L11.21,9.87453875 C11.21,10.4944649 11.4165,10.7896679 12.4785,10.8339483 L12.4785,11.1439114 L7.847,11.1439114 L7.847,10.8339483 C8.791,10.7896679 9.0565,10.5092251 9.0565,9.87453875 L9.0565,1.44649446 L8.968,1.44649446 L6.06225,11.1881919 L5.2805,11.1881919 L2.124,1.44649446 L2.0355,1.44649446 L2.0355,8.36900369 C2.0355,9.96309963 2.25675,10.597786 3.54,10.8339483 L3.54,11.1439114 L0.04425,11.1439114 L0.04425,10.8487085 L0.04425,10.8487085 Z" id="Shape"></path>
                        <path d="M13.28975,10.8487085 C14.396,10.804428 14.58775,10.5092251 14.58775,9.88929889 L14.58775,1.62361624 C14.58775,1.03321033 14.38125,0.723247232 13.28975,0.67896679 L13.28975,0.36900369 L18.06875,0.36900369 L18.06875,0.67896679 C16.9625,0.723247232 16.77075,1.01845018 16.77075,1.62361624 L16.77075,9.88929889 C16.77075,10.5092251 16.97725,10.804428 18.06875,10.8487085 L18.06875,11.1586716 L13.28975,11.1586716 L13.28975,10.8487085 Z" id="Shape"></path>
                        <path d="M19.04225,5.78597786 C19.04225,2.36162362 21.2105,0.103321033 23.9245,0.103321033 C24.9275,0.103321033 25.67975,0.354243542 26.29925,0.723247232 L26.845,0.0295202952 L27.1695,0.0295202952 L27.1695,3.83763838 L26.83025,3.83763838 C25.79775,1.62361624 25.06025,0.516605166 23.82125,0.516605166 C22.55275,0.516605166 21.43175,1.84501845 21.43175,5.71217712 C21.43175,9.59409594 22.61175,11.0110701 23.9835,11.0110701 C24.49975,11.0110701 24.94225,10.8634686 25.252,10.597786 L25.252,7.18819188 C25.252,6.55350554 24.94225,6.33210332 23.88025,6.27306273 L23.88025,5.96309963 L28.32,5.96309963 L28.32,6.27306273 C27.5825,6.31734317 27.36125,6.43542435 27.36125,7.18819188 L27.36125,10.4649446 C26.50575,10.99631 25.1045,11.4095941 23.895,11.4095941 C21.04825,11.3948339 19.04225,9.46125461 19.04225,5.78597786 Z" id="Shape"></path>
                        <path d="M32.25825,9.88929889 C32.25825,10.5239852 32.52375,10.804428 33.49725,10.8487085 L33.49725,11.1586716 L28.792,11.1586716 L28.792,10.8487085 C29.854,10.804428 30.0605,10.5092251 30.0605,9.88929889 L30.0605,1.62361624 C30.0605,1.03321033 29.854,0.723247232 28.792,0.67896679 L28.792,0.36900369 L33.43825,0.36900369 C36.2555,0.36900369 37.17,1.60885609 37.17,2.98154982 C37.17,4.25092251 36.47675,5.35793358 34.38225,5.71217712 L34.38225,5.75645756 C36.32925,5.8597786 36.816,6.80442804 36.993,8.33948339 L37.09625,9.28413284 C37.2585,10.6125461 37.406,10.7749077 38.45325,10.804428 L38.45325,11.0848708 C37.9665,11.1881919 37.42075,11.2472325 37.0225,11.2472325 C35.282,11.2472325 34.928,10.701107 34.8395,9.34317343 L34.70675,7.88191882 C34.6035,6.33210332 34.279,5.94833948 32.804,5.94833948 L32.2435,5.94833948 L32.2435,9.88929889 L32.25825,9.88929889 Z M32.981,5.5498155 C34.55925,5.5498155 34.91325,4.67896679 34.91325,3.08487085 C34.91325,1.63837638 34.4265,0.752767528 32.84825,0.752767528 L32.25825,0.752767528 L32.25825,5.5498155 L32.981,5.5498155 Z" id="Shape"></path>
                        <path d="M43.5125,7.33579336 L40.57725,7.33579336 L40.2085,8.50184502 C39.6775,10.2435424 39.825,10.5830258 41.0345,10.8487085 L41.0345,11.1586716 L37.8485,11.1586716 L37.8485,10.8487085 C38.77775,10.597786 39.13175,10.1254613 39.66275,8.47232472 L42.2735,0.162361624 L43.70425,0.162361624 L46.3445,9.41697417 C46.62475,10.4501845 46.83125,10.6715867 47.849,10.8487085 L47.849,11.1586716 L42.952,11.1586716 L42.952,10.8487085 C44.20575,10.7749077 44.38275,10.4797048 44.14675,9.60885609 L43.5125,7.33579336 Z M43.37975,6.90774908 L42.1555,2.28782288 L42.0965,2.28782288 L40.71,6.90774908 L43.37975,6.90774908 Z" id="Shape"></path>
                        <path d="M47.908,5.80073801 C47.908,2.39114391 50.091,0.103321033 52.7165,0.103321033 C53.631,0.103321033 54.41275,0.413284133 54.9585,0.782287823 L55.519,0.0442804428 L55.8435,0.0442804428 L55.8435,4.0295203 L55.46,4.0295203 C54.6045,1.80073801 53.808,0.516605166 52.628,0.516605166 C51.33,0.516605166 50.28275,1.99261993 50.28275,5.65313653 C50.28275,9.44649446 51.6545,10.6863469 52.982,10.6863469 C54.2505,10.6863469 55.17975,9.68265683 55.814,7.94095941 L56.227,8.11808118 C55.578,10.0516605 54.47175,11.4095941 52.392,11.4095941 C49.7075,11.3948339 47.908,9.37269373 47.908,5.80073801 Z" id="Shape"></path>
                        <path d="M57.09725,10.8487085 C58.15925,10.804428 58.36575,10.5092251 58.36575,9.88929889 L58.36575,1.62361624 C58.36575,1.03321033 58.15925,0.723247232 57.09725,0.67896679 L57.09725,0.36900369 L65.0475,0.36900369 L65.136,3.95571956 L64.73775,3.98523985 C63.88225,1.74169742 63.3955,0.767527675 61.72875,0.767527675 L60.534,0.767527675 L60.534,5.43173432 L60.947,5.43173432 C61.90575,5.43173432 62.3925,5.06273063 62.835,3.42435424 L63.1595,3.42435424 L63.1595,7.89667897 L62.835,7.89667897 C62.3925,6.22878229 61.90575,5.84501845 60.947,5.84501845 L60.534,5.84501845 L60.534,10.7749077 L61.64025,10.7749077 C63.6315,10.7749077 64.251,9.71217712 65.06225,7.30627306 L65.4605,7.33579336 L65.372,11.1881919 L57.0825,11.1881919 L57.0825,10.8487085 L57.09725,10.8487085 Z" id="Shape"></path>
                    </g>
                    <ellipse id="Oval" fill="#D73027" cx="25.96" cy="20.2361624" rx="15.6645" ry="15.6752768"></ellipse>
                    <polygon id="Shape" fill="#FFFFFF" points="13.0685 19.2324723 20.87125 27.1143911 28.68875 19.2324723 20.87125 21.9778598"></polygon>
                    <polygon id="Shape" fill="#FFFFFF" points="25.8715 24.797048 29.264 28.2361624 32.67125 24.797048 29.264 25.9926199"></polygon>
                    <polygon id="Shape" fill="#FFFFFF" points="11.25425 28.1918819 14.6615 31.6162362 18.054 28.1918819 14.6615 29.3874539"></polygon>
                </g>
            </g>
        </g>
    </g>
</svg>