<svg xmlns="http://www.w3.org/2000/svg" xmlns:xlink="http://www.w3.org/1999/xlink" version="1.1" viewBox="0 0 25 31.25" x="0px" y="0px"><path d="M17.449 6.843l-4.949 4.95-4.95-4.95-0.707 0.707 4.95 4.95-4.95 4.949 0.707 0.708 4.95-4.95 4.949 4.95 0.707-0.708-4.949-4.949 4.949-4.95z"/><path d="M12.5 0c-6.904 0-12.5 5.596-12.5 12.5 0 6.903 5.596 12.5 12.5 12.5s12.5-5.597 12.5-12.5c0-6.904-5.596-12.5-12.5-12.5zM12.5 24c-6.328 0-11.5-5.172-11.5-11.5 0-6.329 5.172-11.5 11.5-11.5s11.5 5.171 11.5 11.5c0 6.328-5.172 11.5-11.5 11.5z"/></svg>